<?xml version="1.0" encoding="utf-8"?>
<!-- Generator: Adobe Illustrator 16.0.0, SVG Export Plug-In . SVG Version: 6.00 Build 0)  -->
<!DOCTYPE svg PUBLIC "-//W3C//DTD SVG 1.1//EN" "http://www.w3.org/Graphics/SVG/1.1/DTD/svg11.dtd">
<svg version="1.1" xmlns="http://www.w3.org/2000/svg" xmlns:xlink="http://www.w3.org/1999/xlink" x="0px" y="0px" width="150px"
	 height="52px" viewBox="0 0 735 178.5" enable-background="new 0 0 735 178.5" xml:space="preserve">
<g id="Guides_For_Artboard_1_">
</g>
<g id="Guides_For_Artboard">
</g>
<g id="Layer_2">
	<path fill="#000000" d="M72.24,26.389l-4.161-5.124L48.247,63.25l6.658,3.975l-42.341,98.308l69.913,0.404l26.142-60.377l19.251,59.77
		l59.375-0.201l67.887-58.15l-25.939,57.541l94.636,0.406c0,0-18.44-7.699-23.912-14.994c-5.877-8.914-12.97-14.992-11.349-38.9
		c9.119-37.686,36.273-60.986,36.273-60.986s-12.969,5.673-27.357,11.549c-14.387,5.875-39.921,15.601-71.128,23.503
		c-31.208,7.901-46.609,7.293-59.781,8.307c-13.172,1.012-27.357-0.607-40.124-1.418S94.231,84.489,84.503,81.45
		c-9.727-3.04-29.181-15.196-29.181-15.196L49.5,62.938l18.754-39.703l3.483,4.32c0,0,4.864,6.483,9.322,10.941
		c4.458,4.458,13.578,11.751,25.736,18.843s38.3,15.398,68.9,16.816c30.6,1.418,54.715-5.268,69.508-8.104
		c14.793-2.837,38.706-9.928,52.891-14.386c14.186-4.457,39.719-15.803,48.433-19.653s36.679-14.386,47.013-16.614
		c10.336-2.229,16.213-2.431,16.213-2.431l-143.069-0.405l-66.266,48.424l-16.819-48.019H78.019L72.24,26.389z"/>
	<path fill="#000000" d="M716.33,57.764l7.748,0.884l6.346-29.256l-8.322-0.003c-0.76-2.217-2.725-7.59-4.936-10.748
		c-2.836-4.052-17.832-6.078-17.832-6.078l-245.406,0.203c0,0,9.525,0.203,20.469,7.091c6.688,3.242,16.211,9.117,20.467,13.372
		s9.322,9.32,12.564,29.986c3.242,20.667-11.348,41.332-11.348,41.332s7.496-4.861,11.551-7.496
		c4.053-2.635,20.467-11.954,31.004-16.614s31.816-15.398,50.662-22.084c18.846-6.687,38.908-12.967,60.389-18.235
		c21.48-5.268,40.529-8.307,49.648-8.712s23.102-1.013,23.102-1.013l6.736,0l-5.869,27.155l-6.541-0.815
		c0,0-22.697-2.229-38.301-1.216c-15.604,1.013-67.887,10.739-82.477,14.993c-14.592,4.255-56.742,20.464-83.896,36.47
		s-42.15,26.947-42.15,26.947s-13.576,10.941-24.115,16.209c-10.537,5.268-23.709,10.131-29.18,12.156
		c-5.473,2.027-10.539,3.445-10.539,3.445h104.16l11.754-26.947l136.18,0.201c0,0,15.4-2.229,19.859-5.064
		c4.457-2.836,8.916-8.914,10.334-10.738C689.702,121.5,716.33,57.764,716.33,57.764z"/>
	<path fill="#000000" fill-rule="evenodd" clip-rule="evenodd" d="M318.154,128.363c-8.547-15.645-3.916-33.779,1.424-46.224
		c5.342-12.445,21.367-34.136,43.09-46.581s41.309-18.49,63.031-18.49c21.721,0,39.17,9.601,46.648,27.024
		s2.492,31.291-2.137,41.958c-4.629,10.666-18.16,31.291-35.609,41.957c-17.449,10.668-30.27,19.201-46.295,22.047
		c-16.023,2.844-35.609,3.199-47.006-1.779C329.906,143.299,326.701,144.01,318.154,128.363z"/>
	<path fill="#FEF102" d="M323.83,164.926c0,0-18.44-7.699-23.912-14.994c-5.877-8.914-12.97-14.992-11.349-38.9
		c9.119-37.686,36.273-60.986,36.273-60.986s-12.969,5.673-27.357,11.549c-14.387,5.875-39.921,15.601-71.128,23.503
		c-31.208,7.9-46.609,7.293-59.781,8.307c-13.172,1.012-27.357-0.607-40.124-1.418S94.231,84.489,84.503,81.45
		c-9.727-3.04-29.181-15.196-29.181-15.196L49.5,62.938l18.754-39.703l3.483,4.32c0,0,4.864,6.483,9.322,10.941
		c4.458,4.458,13.578,11.751,25.736,18.843s38.3,15.398,68.9,16.816c30.6,1.418,54.715-5.268,69.508-8.104
		c14.793-2.837,38.706-9.928,52.891-14.386c14.186-4.457,39.719-15.803,48.433-19.653s36.679-14.386,47.013-16.614
		c10.336-2.229,16.213-2.431,16.213-2.431s6.232-2.703,20.232-2.036s23.943,1.833,23.943,1.833s9.525,0.203,20.469,7.091
		c6.688,3.242,16.211,9.117,20.467,13.372s9.322,9.32,12.564,29.986c3.242,20.667-11.348,41.332-11.348,41.332
		s7.496-4.861,11.551-7.496c4.053-2.635,20.467-11.953,31.004-16.614c10.537-4.66,31.816-15.398,50.662-22.084
		c18.846-6.687,38.908-12.967,60.389-18.235c21.48-5.268,40.529-8.307,49.648-8.712s23.102-1.013,23.102-1.013l6.736,0
		l-5.869,27.155l-6.541-0.815c0,0-22.697-2.229-38.301-1.216c-15.604,1.013-67.887,10.739-82.477,14.993
		c-14.592,4.255-56.742,20.464-83.896,36.47s-42.15,26.947-42.15,26.947s-13.576,10.941-24.115,16.209
		c-10.537,5.268-23.709,10.131-29.18,12.156c-5.473,2.027-10.539,3.445-10.539,3.445s-22.451,3.861-43.119,3.861
		C342.318,169.598,323.83,164.926,323.83,164.926z M341.301,148.275c11.396,4.979,30.982,4.623,47.006,1.779
		c16.025-2.846,28.846-11.379,46.295-22.047c17.449-10.666,30.98-31.291,35.609-41.957c4.629-10.667,9.615-24.535,2.137-41.958
		s-24.928-27.024-46.648-27.024c-21.723,0-41.309,6.044-63.032,18.49c-21.722,12.445-37.748,34.136-43.089,46.581
		c-5.34,12.444-9.971,30.579-1.424,46.224C326.701,144.01,329.906,143.299,341.301,148.275z"/>
</g>
</svg>
